<svg width="58" height="72" viewBox="0 0 58 72" fill="none" xmlns="http://www.w3.org/2000/svg">
<g filter="url(#filter0_d_1976_51118)">
<mask id="path-1-outside-1_1976_51118" maskUnits="userSpaceOnUse" x="6" y="2" width="46" height="60" fill="black">
<rect fill="white" x="6" y="2" width="46" height="60"/>
<path fill-rule="evenodd" clip-rule="evenodd" d="M30.3374 55.7999C34.671 49.8558 46.5631 32.8127 46.5631 24.7816C46.5631 14.9611 38.6021 7 28.7816 7C18.9611 7 11 14.9611 11 24.7816C11 32.8127 22.8921 49.8558 27.2257 55.7999C28.0029 56.8659 29.5602 56.8659 30.3374 55.7999ZM28.7816 30.116C31.7277 30.116 34.116 27.7277 34.116 24.7816C34.116 21.8354 31.7277 19.4471 28.7816 19.4471C25.8354 19.4471 23.4471 21.8354 23.4471 24.7816C23.4471 27.7277 25.8354 30.116 28.7816 30.116Z"/>
</mask>
<path fill-rule="evenodd" clip-rule="evenodd" d="M30.3374 55.7999C34.671 49.8558 46.5631 32.8127 46.5631 24.7816C46.5631 14.9611 38.6021 7 28.7816 7C18.9611 7 11 14.9611 11 24.7816C11 32.8127 22.8921 49.8558 27.2257 55.7999C28.0029 56.8659 29.5602 56.8659 30.3374 55.7999ZM28.7816 30.116C31.7277 30.116 34.116 27.7277 34.116 24.7816C34.116 21.8354 31.7277 19.4471 28.7816 19.4471C25.8354 19.4471 23.4471 21.8354 23.4471 24.7816C23.4471 27.7277 25.8354 30.116 28.7816 30.116Z" fill="#8DAEC1"/>
<path d="M30.3374 55.7999L26.2972 52.8543L26.2972 52.8543L30.3374 55.7999ZM27.2257 55.7999L23.1855 58.7455L23.1855 58.7455L27.2257 55.7999ZM41.5631 24.7816C41.5631 25.7641 41.1438 27.5821 40.0263 30.2468C38.9612 32.7868 37.4576 35.6464 35.7597 38.5485C32.3685 44.3451 28.4241 49.9369 26.2972 52.8543L34.3777 58.7455C36.5843 55.7188 40.7529 49.817 44.3911 43.5982C46.208 40.4927 47.9482 37.2142 49.2483 34.1141C50.496 31.1387 51.5631 27.8146 51.5631 24.7816H41.5631ZM28.7816 12C35.8406 12 41.5631 17.7225 41.5631 24.7816H51.5631C51.5631 12.1997 41.3635 2 28.7816 2V12ZM16 24.7816C16 17.7225 21.7225 12 28.7816 12V2C16.1997 2 6 12.1997 6 24.7816H16ZM31.2659 52.8543C29.139 49.9369 25.1947 44.3451 21.8034 38.5485C20.1056 35.6464 18.602 32.7868 17.5368 30.2468C16.4194 27.5821 16 25.7641 16 24.7816H6C6 27.8146 7.06716 31.1387 8.31488 34.1141C9.61492 37.2142 11.3552 40.4927 13.1721 43.5982C16.8103 49.817 20.9788 55.7188 23.1855 58.7455L31.2659 52.8543ZM26.2972 52.8543C27.5171 51.1811 30.0461 51.1811 31.2659 52.8543L23.1855 58.7455C25.9597 62.5507 31.6034 62.5507 34.3777 58.7455L26.2972 52.8543ZM29.116 24.7816C29.116 24.9663 28.9663 25.116 28.7816 25.116V35.116C34.4891 35.116 39.116 30.4891 39.116 24.7816H29.116ZM28.7816 24.4471C28.9663 24.4471 29.116 24.5968 29.116 24.7816H39.116C39.116 19.074 34.4891 14.4471 28.7816 14.4471V24.4471ZM28.4471 24.7816C28.4471 24.5968 28.5968 24.4471 28.7816 24.4471V14.4471C23.074 14.4471 18.4471 19.074 18.4471 24.7816H28.4471ZM28.7816 25.116C28.5968 25.116 28.4471 24.9663 28.4471 24.7816H18.4471C18.4471 30.4891 23.074 35.116 28.7816 35.116V25.116Z" fill="white" mask="url(#path-1-outside-1_1976_51118)"/>
</g>
<defs>
<filter id="filter0_d_1976_51118" x="0" y="0" width="57.5631" height="71.5994" filterUnits="userSpaceOnUse" color-interpolation-filters="sRGB">
<feFlood flood-opacity="0" result="BackgroundImageFix"/>
<feColorMatrix in="SourceAlpha" type="matrix" values="0 0 0 0 0 0 0 0 0 0 0 0 0 0 0 0 0 0 127 0" result="hardAlpha"/>
<feOffset dy="4"/>
<feGaussianBlur stdDeviation="3"/>
<feComposite in2="hardAlpha" operator="out"/>
<feColorMatrix type="matrix" values="0 0 0 0 0 0 0 0 0 0 0 0 0 0 0 0 0 0 0.5 0"/>
<feBlend mode="normal" in2="BackgroundImageFix" result="effect1_dropShadow_1976_51118"/>
<feBlend mode="normal" in="SourceGraphic" in2="effect1_dropShadow_1976_51118" result="shape"/>
</filter>
</defs>
</svg>
