<svg width="64" height="64" viewBox="0 0 64 64" fill="none" xmlns="http://www.w3.org/2000/svg">
<rect width="64" height="64" fill="white"/>
<rect x="1.25" y="1.25" width="61.5" height="61.5" rx="8" fill="#282B62"/>
<path d="M13.6565 15.028H20.9003L21.2282 15.3549V19.1888C21.2282 20.4172 20.9798 21.5169 20.483 22.4878C19.9861 23.4586 19.3403 24.2313 18.5453 24.8059C17.7504 25.3607 16.8958 25.7768 15.9816 26.0542C15.0873 26.3514 14.1831 26.5 13.2689 26.5C11.997 26.5 10.7748 26.2622 9.60228 25.7867C8.42975 25.3112 7.40627 24.5087 6.53184 23.3794C5.67728 22.2302 5.25 20.8531 5.25 19.2483V12.5017C5.25 11.2931 5.48848 10.2133 5.96544 9.26224C6.46228 8.29138 7.10816 7.52856 7.9031 6.97378C8.69804 6.39919 9.55259 5.97319 10.4668 5.6958C11.3809 5.3986 12.3051 5.25 13.2391 5.25C14.1732 5.25 15.0973 5.3986 16.0115 5.6958C16.9256 5.97319 17.7802 6.39919 18.5751 6.97378C19.3701 7.52856 20.006 8.29138 20.483 9.26224C20.9798 10.2133 21.2282 11.2931 21.2282 12.5017V13.0962L20.9003 13.4231H16.8759L16.548 13.0962C16.548 12.0857 16.24 11.2733 15.6239 10.6591C15.0078 10.0251 14.2129 9.70804 13.2391 9.70804C12.2454 9.70804 11.4406 10.035 10.8245 10.6888C10.2283 11.3228 9.93019 12.155 9.93019 13.1853V18.5647C9.93019 19.595 10.2382 20.4371 10.8543 21.0909C11.4704 21.7249 12.2753 22.042 13.2689 22.042C14.2825 22.042 15.0575 21.7646 15.5941 21.2098C16.1506 20.6352 16.4685 19.9318 16.548 19.0997H13.6565L13.3285 18.7727V15.3549L13.6565 15.028Z" fill="white"/>
<path d="M32.4811 5.25C33.4151 5.25 34.3293 5.3986 35.2236 5.6958C36.1378 5.97319 36.9923 6.39919 37.7873 6.97378C38.6021 7.52856 39.2579 8.29138 39.7547 9.26224C40.2516 10.2133 40.5 11.2931 40.5 12.5017V19.278C40.5 20.4668 40.2516 21.5466 39.7547 22.5175C39.2579 23.4685 38.6021 24.2313 37.7873 24.8059C36.9923 25.3607 36.1378 25.7768 35.2236 26.0542C34.3293 26.3514 33.4251 26.5 32.5109 26.5C31.239 26.5 30.0168 26.2622 28.8442 25.7867C27.6717 25.2914 26.6582 24.479 25.8036 23.3497C24.9491 22.2203 24.5218 20.8631 24.5218 19.278V12.5017C24.5218 11.2931 24.7702 10.2133 25.267 9.26224C25.7639 8.29138 26.4098 7.52856 27.2047 6.97378C27.9996 6.39919 28.8442 5.97319 29.7385 5.6958C30.6527 5.3986 31.5669 5.25 32.4811 5.25ZM35.8198 18.5647V13.1853C35.8198 12.1748 35.5118 11.3427 34.8957 10.6888C34.2796 10.035 33.4748 9.70804 32.4811 9.70804C31.5073 9.70804 30.7123 10.035 30.0963 10.6888C29.5001 11.3427 29.202 12.1748 29.202 13.1853V18.5647C29.202 19.595 29.51 20.4371 30.1261 21.0909C30.7422 21.7249 31.5371 22.042 32.5109 22.042C33.5046 22.042 34.2995 21.7249 34.8957 21.0909C35.5118 20.4371 35.8198 19.595 35.8198 18.5647Z" fill="white"/>
<path d="M43.1802 32.3293L52.625 58.75H43.0625H33.5L42.9448 32.3293C42.9843 32.2187 43.1407 32.2187 43.1802 32.3293Z" fill="white"/>
<path d="M21.0552 32.3293L30.5 58.75H20.9375H11.375L20.8198 32.3293C20.8593 32.2187 21.0157 32.2187 21.0552 32.3293Z" fill="white"/>
<path d="M50.8732 22.0896H58.1787C58.3303 22.0896 58.4757 22.1494 58.5828 22.2557C58.6899 22.3619 58.75 22.506 58.75 22.6561V25.8085C58.75 25.9587 58.6899 26.1027 58.5828 26.2089C58.4757 26.3153 58.3303 26.375 58.1787 26.375H44.693C44.5414 26.375 44.396 26.3153 44.2888 26.2089C44.1818 26.1027 44.1217 25.9587 44.1217 25.8085V22.9647C44.1217 22.6279 44.2052 22.2963 44.3649 21.9991C44.5677 21.818 45.1455 21.3251 46.0985 20.5204C47.0514 19.6955 48.0246 18.8505 49.018 17.9854C50.0115 17.1001 50.782 16.396 51.3294 15.8729C52.1607 15.1083 52.7892 14.4343 53.2149 13.8509C53.661 13.2674 53.884 12.684 53.884 12.1005C53.884 11.3561 53.6509 10.7425 53.1845 10.2596C52.7182 9.77679 52.0897 9.53536 51.299 9.53536C50.4474 9.53536 49.7885 9.81702 49.3222 10.3804C48.8915 10.9006 48.6597 11.5753 48.6268 12.4045C48.6214 12.5389 48.5721 12.6687 48.4809 12.7683C48.3775 12.8812 48.2309 12.9455 48.0771 12.9455H44.5713C44.4197 12.9455 44.2743 12.8858 44.1672 12.7795C44.0601 12.6732 44 12.5292 44 12.3791V12.1005C44 10.1088 44.7096 8.46905 46.1289 7.18143C47.5481 5.89381 49.3019 5.25 51.3902 5.25C53.3974 5.25 55.0904 5.88375 56.4691 7.15125C57.8478 8.39863 58.5371 10.0082 58.5371 11.9798C58.5371 13.026 58.3344 13.9616 57.9289 14.7864C57.5436 15.6113 56.9151 16.4865 56.0433 17.412C55.3742 18.1161 54.3402 19.0818 52.9412 20.3091L50.8732 22.0896Z" fill="#F29200"/>
</svg>
